<?xml version="1.0"?>
<svg xmlns="http://www.w3.org/2000/svg" xmlns:xlink="http://www.w3.org/1999/xlink" xmlns:svgjs="http://svgjs.com/svgjs" version="1.1" width="512" height="512" x="0" y="0" viewBox="0 0 512 512" style="enable-background:new 0 0 512 512" xml:space="preserve" class=""><g><g xmlns="http://www.w3.org/2000/svg"><path d="m239.711 17.607c1.597-9.153-5.414-17.607-14.766-17.607h-30.908c-7.266 0-13.506 5.229-14.766 12.393l-3.112 17.607h61.368z" fill="#83f1d7" data-original="#000000" style="" class=""/><path d="m336.916 30-3.104-17.607c-1.259-7.164-7.5-12.393-14.765-12.393h-30.938c-9.28 0-16.428 8.432-14.766 17.607l2.191 12.393z" fill="#83f1d7" data-original="#000000" style="" class=""/><path d="m418.451 494.393-12.76-72.393c-9.76 0-318.31 0-298.297 0l-12.761 72.393c-1.597 9.153 5.414 17.607 14.765 17.607h30.908c7.266 0 13.506-5.229 14.766-12.393l8.392-47.607h186.127l8.392 47.607c1.26 7.163 7.5 12.393 14.766 12.393h30.938c9.35 0 16.361-8.454 14.764-17.607z" fill="#83f1d7" data-original="#000000" style="" class=""/><path d="m286 187.211-64.395 64.395c-5.859 5.859-15.352 5.859-21.211 0l-19.394-19.395-38.789 38.789h227.578z" fill="#83f1d7" data-original="#000000" style="" class=""/><path d="m46 392h420c8.291 0 15-6.709 15-15v-302c0-8.291-6.709-15-15-15h-420c-8.291 0-15 6.709-15 15v302c0 8.291 6.709 15 15 15zm49.395-116.605 75-75c5.859-5.859 15.352-5.859 21.211 0l19.394 19.394 64.395-64.395c5.859-5.859 15.352-5.859 21.211 0l120 120c4.277 4.292 5.566 10.737 3.252 16.348s-7.794 9.258-13.858 9.258h-300c-6.064 0-11.543-3.647-13.857-9.258s-1.026-12.055 3.252-16.347z" fill="#83f1d7" data-original="#000000" style="" class=""/></g></g></svg>
