<svg id="Capa_1" enable-background="new 0 0 512 512" height="512" viewBox="0 0 512 512" width="512" xmlns="http://www.w3.org/2000/svg"><g><path d="m265.489 248.466h51.913c4.142 0 7.5-3.358 7.5-7.5s-3.358-7.5-7.5-7.5h-51.913c-18.699 0-33.911 15.212-33.911 33.911 0 18.698 15.212 33.911 33.911 33.911h51.913c4.142 0 7.5-3.358 7.5-7.5s-3.358-7.5-7.5-7.5h-51.913c-10.428 0-18.911-8.483-18.911-18.911-.001-10.427 8.483-18.911 18.911-18.911z" fill="#7f8a93"/><path d="m299.159 128.416c0-5.881-4.767-10.648-10.648-10.648s-10.648 4.767-10.648 10.648 4.767 10.648 10.648 10.648 10.648-4.767 10.648-10.648z" fill="#7f8a93"/><path d="m188.141 117.768c-5.881 0-10.648 4.767-10.648 10.648s4.767 10.648 10.648 10.648 10.648-4.767 10.648-10.648-4.767-10.648-10.648-10.648z" fill="#7f8a93"/><path d="m449.18 214.944c0-2.549-1.295-4.924-3.438-6.305l-51.571-33.224 45.879-40.183c2.065-1.809 2.977-4.601 2.378-7.279-.6-2.679-2.614-4.816-5.252-5.572l-67.404-19.322 1.209-64.281c.048-2.549-1.202-4.948-3.319-6.369-2.117-1.42-4.811-1.669-7.151-.659l-55.358 23.887c-1.69-.614-3.397-1.192-5.119-1.737l-32.51-50.463c-1.381-2.142-3.756-3.437-6.305-3.437s-4.924 1.295-6.305 3.438l-32.51 50.463c-52.261 16.515-90.254 65.452-90.254 123.102v56.463h-35.419c-18.698 0-33.911 15.212-33.911 33.911s15.212 33.911 33.911 33.911h35.484c1.17 38.879 19.618 73.487 47.91 96.398v52.607h-8.128c-17.012 0-30.853 13.841-30.853 30.853s13.841 30.854 30.853 30.854h38.981c7.827 0 15.161-2.933 20.74-8.011 5.48 4.975 12.751 8.011 20.719 8.011h38.981c17.013 0 30.854-13.841 30.854-30.853v-57.417c22.319 19.293 52.733 37.987 87.101 38.408.09.001.18.001.27.001 8.925 0 16.498-5.437 19.339-13.912 2.863-8.542.02-17.516-7.245-22.864-19.737-14.531-31.753-34.823-35.713-60.31-2.205-14.191-1.185-26.187-.463-31.686l57.698-32.902c2.214-1.263 3.636-3.564 3.774-6.11s-1.027-4.987-3.093-6.481l-47.862-34.632 49.664-31.995c2.143-1.379 3.438-3.754 3.438-6.303zm-317.03 71.344h-35.419c-10.427 0-18.911-8.483-18.911-18.911 0-10.427 8.483-18.911 18.911-18.911h35.419zm223.614-236.153-.719 38.223c-9.157-9.712-19.73-17.916-31.406-24.361zm-94.545-28.786 17.926 27.826c-6.023-.843-12.458-1.24-17.926-1.24-5.676 0-12.047.42-17.926 1.24zm-34.387 442.589c-3.496 5.212-5.248 11.272-5.248 17.208 0 3.187.53 6.706 1.676 10.023-2.977 3.657-7.449 5.83-12.282 5.83h-38.981c-8.741 0-15.853-7.112-15.853-15.853s7.112-15.853 15.853-15.853h15.628c4.142 0 7.5-3.358 7.5-7.5v-24.093c10.007 4.872 20.624 8.675 31.707 11.258zm80.44 17.209c0 8.741-7.112 15.853-15.854 15.853h-38.981c-8.876 0-15.853-7.312-15.853-15.853 0-8.814 7.177-15.853 15.853-15.853h15.628c4.142 0 7.5-3.358 7.5-7.5v-9.581c10.947-1.033 21.557-3.234 31.707-6.479zm-65.44-28.975v-27.205c6.116.925 12.372 1.416 18.734 1.448v23.879h-8.128c-3.725 0-7.298.664-10.606 1.878zm19.387-40.749c-62.898 0-114.069-51.171-114.069-114.069v-3.566-52.822-57.123l17.31-12.458 20.43 14.703c2.616 1.884 6.146 1.884 8.762 0l20.429-14.703 20.429 14.703c2.617 1.883 6.145 1.883 8.762 0l20.43-14.703 20.429 14.703c3.347 2.408 8.038 1.671 10.469-1.706 2.419-3.362 1.656-8.049-1.706-10.469l-24.81-17.856c-2.618-1.884-6.146-1.883-8.762 0l-20.43 14.703-20.429-14.703c-2.617-1.884-6.146-1.884-8.763 0l-20.429 14.703-20.43-14.703c-2.616-1.884-6.145-1.884-8.762 0l-12.286 8.843c6.092-57.501 54.911-101.966 113.427-101.966 63.171 0 114.069 51.436 114.069 114.069v120.352c-.002 62.856-51.127 114.068-114.07 114.068zm151.625 26.02c2.847 2.096 2.288 4.906 1.916 6.018-.291.867-1.515 3.679-5.118 3.679-.028 0-.057 0-.085 0-32.409-.398-61.566-20.035-82.187-38.94 17.813-10.637 32.676-25.311 43.478-42.671 3.141 22.628 13.369 50.838 41.996 71.914zm-35.382-316.576 42.359 12.143-30.673 26.865c-1.83-13.75-5.926-27.098-11.686-39.008zm48.254 172.337-36.5 20.814c1.987-15.898.56-24.244 1.072-46.449zm-35.429-54.073v-48.375l37.544 24.188z" fill="#7f8a93"/></g></svg>