<?xml version="1.0"?>
<svg xmlns="http://www.w3.org/2000/svg" xmlns:xlink="http://www.w3.org/1999/xlink" xmlns:svgjs="http://svgjs.com/svgjs" version="1.1" width="512" height="512" x="0" y="0" viewBox="0 0 371.099 371.099" style="enable-background:new 0 0 512 512" xml:space="preserve" class=""><g>
<g xmlns="http://www.w3.org/2000/svg">
	<g>
		<path d="M366.081,148.201L221.317,3.45c-4.995-5.008-13.618-4.504-19.251,1.129L54.468,152.188l162.874,162.887L364.94,167.453    C370.56,161.82,371.089,153.209,366.081,148.201z" fill="#83f1d7" data-original="#000000" style="" class=""/>
		<path d="M6.157,200.491c-5.633,5.621-6.137,14.25-1.132,19.252l144.751,144.764c1.703,1.705,3.879,2.533,6.173,2.978    c2.534,2.216,5.81,3.615,9.452,3.615h174.955c7.963,0,14.424-6.468,14.424-14.43s-6.461-14.423-14.424-14.423h-150.2    l13.592-13.596L40.873,165.783L6.157,200.491z" fill="#83f1d7" data-original="#000000" style="" class=""/>
	</g>
</g>
<g xmlns="http://www.w3.org/2000/svg">
</g>
<g xmlns="http://www.w3.org/2000/svg">
</g>
<g xmlns="http://www.w3.org/2000/svg">
</g>
<g xmlns="http://www.w3.org/2000/svg">
</g>
<g xmlns="http://www.w3.org/2000/svg">
</g>
<g xmlns="http://www.w3.org/2000/svg">
</g>
<g xmlns="http://www.w3.org/2000/svg">
</g>
<g xmlns="http://www.w3.org/2000/svg">
</g>
<g xmlns="http://www.w3.org/2000/svg">
</g>
<g xmlns="http://www.w3.org/2000/svg">
</g>
<g xmlns="http://www.w3.org/2000/svg">
</g>
<g xmlns="http://www.w3.org/2000/svg">
</g>
<g xmlns="http://www.w3.org/2000/svg">
</g>
<g xmlns="http://www.w3.org/2000/svg">
</g>
<g xmlns="http://www.w3.org/2000/svg">
</g>
</g></svg>
